<mxfile host="app.diagrams.net" agent="Mozilla/5.0 (Windows NT 10.0; Win64; x64) AppleWebKit/537.36 (KHTML, like Gecko) Chrome/127.0.0.0 Safari/537.36 Edg/127.0.0.0" version="24.7.7">
  <diagram name="Page-1" id="HqE12r8ShQ-GPAsqvAnI">
    <mxGraphModel dx="1386" dy="795" grid="1" gridSize="10" guides="1" tooltips="1" connect="1" arrows="1" fold="1" page="1" pageScale="1" pageWidth="850" pageHeight="1100" math="0" shadow="0">
      <root>
        <mxCell id="0" />
        <mxCell id="1" parent="0" />
        <mxCell id="AOi5KQ0v20pBJk3gpuOD-1" value="" style="whiteSpace=wrap;html=1;aspect=fixed;" vertex="1" parent="1">
          <mxGeometry x="135" y="260" width="580" height="580" as="geometry" />
        </mxCell>
        <mxCell id="AOi5KQ0v20pBJk3gpuOD-19" style="edgeStyle=orthogonalEdgeStyle;rounded=0;orthogonalLoop=1;jettySize=auto;html=1;" edge="1" parent="1" source="AOi5KQ0v20pBJk3gpuOD-2" target="AOi5KQ0v20pBJk3gpuOD-6">
          <mxGeometry relative="1" as="geometry">
            <Array as="points">
              <mxPoint x="410" y="460" />
              <mxPoint x="410" y="460" />
            </Array>
          </mxGeometry>
        </mxCell>
        <mxCell id="AOi5KQ0v20pBJk3gpuOD-21" value="Update" style="edgeLabel;html=1;align=center;verticalAlign=middle;resizable=0;points=[];" vertex="1" connectable="0" parent="AOi5KQ0v20pBJk3gpuOD-19">
          <mxGeometry x="0.0967" relative="1" as="geometry">
            <mxPoint y="-12" as="offset" />
          </mxGeometry>
        </mxCell>
        <mxCell id="AOi5KQ0v20pBJk3gpuOD-2" value="Helping Hand" style="ellipse;whiteSpace=wrap;html=1;aspect=fixed;" vertex="1" parent="1">
          <mxGeometry x="385" y="510" width="80" height="80" as="geometry" />
        </mxCell>
        <mxCell id="AOi5KQ0v20pBJk3gpuOD-11" style="edgeStyle=orthogonalEdgeStyle;rounded=0;orthogonalLoop=1;jettySize=auto;html=1;" edge="1" parent="1" source="AOi5KQ0v20pBJk3gpuOD-3" target="AOi5KQ0v20pBJk3gpuOD-2">
          <mxGeometry relative="1" as="geometry" />
        </mxCell>
        <mxCell id="AOi5KQ0v20pBJk3gpuOD-12" value="Request Offers" style="edgeLabel;html=1;align=center;verticalAlign=middle;resizable=0;points=[];" vertex="1" connectable="0" parent="AOi5KQ0v20pBJk3gpuOD-11">
          <mxGeometry x="0.1014" y="-1" relative="1" as="geometry">
            <mxPoint x="-13" y="-1" as="offset" />
          </mxGeometry>
        </mxCell>
        <mxCell id="AOi5KQ0v20pBJk3gpuOD-3" value="Consumer" style="rounded=1;whiteSpace=wrap;html=1;" vertex="1" parent="1">
          <mxGeometry x="150" y="520" width="120" height="60" as="geometry" />
        </mxCell>
        <mxCell id="AOi5KQ0v20pBJk3gpuOD-9" style="edgeStyle=orthogonalEdgeStyle;rounded=0;orthogonalLoop=1;jettySize=auto;html=1;" edge="1" parent="1" source="AOi5KQ0v20pBJk3gpuOD-4" target="AOi5KQ0v20pBJk3gpuOD-2">
          <mxGeometry relative="1" as="geometry" />
        </mxCell>
        <mxCell id="AOi5KQ0v20pBJk3gpuOD-10" value="Post Offers" style="edgeLabel;html=1;align=center;verticalAlign=middle;resizable=0;points=[];" vertex="1" connectable="0" parent="AOi5KQ0v20pBJk3gpuOD-9">
          <mxGeometry x="0.054" y="1" relative="1" as="geometry">
            <mxPoint as="offset" />
          </mxGeometry>
        </mxCell>
        <mxCell id="AOi5KQ0v20pBJk3gpuOD-4" value="Provider" style="rounded=1;whiteSpace=wrap;html=1;" vertex="1" parent="1">
          <mxGeometry x="580" y="520" width="120" height="60" as="geometry" />
        </mxCell>
        <mxCell id="AOi5KQ0v20pBJk3gpuOD-22" style="edgeStyle=orthogonalEdgeStyle;rounded=0;orthogonalLoop=1;jettySize=auto;html=1;" edge="1" parent="1" source="AOi5KQ0v20pBJk3gpuOD-6">
          <mxGeometry relative="1" as="geometry">
            <mxPoint x="440" y="510" as="targetPoint" />
            <Array as="points">
              <mxPoint x="440" y="510" />
            </Array>
          </mxGeometry>
        </mxCell>
        <mxCell id="AOi5KQ0v20pBJk3gpuOD-23" value="Authenticate" style="edgeLabel;html=1;align=center;verticalAlign=middle;resizable=0;points=[];" vertex="1" connectable="0" parent="AOi5KQ0v20pBJk3gpuOD-22">
          <mxGeometry x="0.5302" y="-1" relative="1" as="geometry">
            <mxPoint x="11" y="-9" as="offset" />
          </mxGeometry>
        </mxCell>
        <mxCell id="AOi5KQ0v20pBJk3gpuOD-6" value="User Database" style="shape=cylinder3;whiteSpace=wrap;html=1;boundedLbl=1;backgroundOutline=1;size=15;" vertex="1" parent="1">
          <mxGeometry x="383" y="320" width="85" height="100" as="geometry" />
        </mxCell>
        <mxCell id="AOi5KQ0v20pBJk3gpuOD-24" style="edgeStyle=orthogonalEdgeStyle;rounded=0;orthogonalLoop=1;jettySize=auto;html=1;" edge="1" parent="1">
          <mxGeometry relative="1" as="geometry">
            <mxPoint x="410.48571428571427" y="680" as="sourcePoint" />
            <mxPoint x="410" y="590" as="targetPoint" />
          </mxGeometry>
        </mxCell>
        <mxCell id="AOi5KQ0v20pBJk3gpuOD-25" value="Catalogue" style="edgeLabel;html=1;align=center;verticalAlign=middle;resizable=0;points=[];" vertex="1" connectable="0" parent="AOi5KQ0v20pBJk3gpuOD-24">
          <mxGeometry x="0.3556" y="-1" relative="1" as="geometry">
            <mxPoint x="-21" y="-9" as="offset" />
          </mxGeometry>
        </mxCell>
        <mxCell id="AOi5KQ0v20pBJk3gpuOD-29" value="Agreements" style="edgeLabel;html=1;align=center;verticalAlign=middle;resizable=0;points=[];" vertex="1" connectable="0" parent="AOi5KQ0v20pBJk3gpuOD-24">
          <mxGeometry x="0.2043" y="-1" relative="1" as="geometry">
            <mxPoint x="-21" y="4" as="offset" />
          </mxGeometry>
        </mxCell>
        <mxCell id="AOi5KQ0v20pBJk3gpuOD-7" value="System Database" style="shape=cylinder3;whiteSpace=wrap;html=1;boundedLbl=1;backgroundOutline=1;size=15;" vertex="1" parent="1">
          <mxGeometry x="383" y="680" width="85" height="100" as="geometry" />
        </mxCell>
        <mxCell id="AOi5KQ0v20pBJk3gpuOD-27" style="edgeStyle=orthogonalEdgeStyle;rounded=0;orthogonalLoop=1;jettySize=auto;html=1;entryX=0.5;entryY=0;entryDx=0;entryDy=0;entryPerimeter=0;" edge="1" parent="1">
          <mxGeometry relative="1" as="geometry">
            <mxPoint x="440" y="590" as="sourcePoint" />
            <mxPoint x="440.5" y="680" as="targetPoint" />
          </mxGeometry>
        </mxCell>
        <mxCell id="AOi5KQ0v20pBJk3gpuOD-28" value="Update" style="edgeLabel;html=1;align=center;verticalAlign=middle;resizable=0;points=[];" vertex="1" connectable="0" parent="AOi5KQ0v20pBJk3gpuOD-27">
          <mxGeometry x="0.3247" y="-1" relative="1" as="geometry">
            <mxPoint x="10" y="1" as="offset" />
          </mxGeometry>
        </mxCell>
      </root>
    </mxGraphModel>
  </diagram>
</mxfile>
